<?xml version="1.0" encoding="utf-8"?>
<!-- Generator: Adobe Illustrator 19.1.1, SVG Export Plug-In . SVG Version: 6.00 Build 0)  -->
<svg version="1.1" id="Layer_1" xmlns="http://www.w3.org/2000/svg" xmlns:xlink="http://www.w3.org/1999/xlink" x="0px" y="0px"
	 viewBox="0 0 80 80" style="enable-background:new 0 0 80 80;" xml:space="preserve">
<style type="text/css">
	.st0{fill:#ABABAB;}
	.st1{fill:none;}
</style>
<polygon class="st0" points="50.9,8 62.9,8 35,40 62.9,72 50.9,72 23.1,40 "/>
<polygon class="st0" points="112.1,72 100.1,72 128,40 100.1,8 112.1,8 139.9,40 "/>
<polygon class="st0" points="168,32.1 168,20.1 200,48 232,20.1 232,32.1 200,59.9 "/>
<polygon class="st0" points="257,73.2 248.8,64.4 260.8,64.1 261.8,52.3 270.1,61.1 268.9,72.9 "/>
<rect x="8" y="8" class="st1" width="64" height="64"/>
<path class="st0" d="M266.9,63.1c-8.1-4.6-13.6-13.3-13.6-23.3c0-14.7,12-26.7,26.7-26.7c14.7,0,26.7,12,26.7,26.7l8.1,0.1
	c0-19.2-15.6-34.8-34.8-34.8S245.2,20.8,245.2,40c0,13.6,7.8,25.4,19.3,31.2c4.7,2.4,3.8-1.8,3.9-1.8
	C268.3,69.3,269.9,64.8,266.9,63.1z"/>
</svg>
